<svg xmlns="http://www.w3.org/2000/svg" xmlns:xlink="http://www.w3.org/1999/xlink" id="Noark" x="0px" y="0px" width="303" height="51" viewBox="0 233.201 800.265 133.598" xml:space="preserve"><g>	<g>		<path fill="#8C8E90" d="M502.116,242.46v121.693h42.063V262.037c5.291-1.587,13.228-2.646,21.164-2.646   c2.91,0,6.085,0.265,8.995,0.529v-26.719c-1.323,0-2.646,0-3.969,0C543.122,233.201,519.313,237.169,502.116,242.46    M681.217,296.429c34.656-20.635,61.905-60.317,61.905-60.317h-48.413c-22.486,28.307-45.768,44.973-57.407,52.381l-0.794-52.646   h-41.799v128.307h41.799v-64.814h0.529l62.434,64.55h47.619L681.217,296.429z M408.994,233.201   c-24.074,0-47.883,4.762-61.904,9.259l10.582,21.958c11.64-3.704,30.953-7.672,46.826-7.672c19.047,0,31.216,5.026,31.216,18.254   v6.614c-50.529,2.116-97.619,8.995-97.619,43.916c0,26.19,25.132,41.27,75.132,41.27c25.132,0,50-4.232,62.434-9.259v-78.836   C475.396,246.164,451.587,233.201,408.994,233.201z M435.45,341.402c-4.233,1.322-14.815,2.646-23.81,2.646   c-21.958,0-34.392-6.879-34.392-19.048c0-19.313,27.25-21.429,58.202-22.486V341.402z M155.291,235.582l-37.566,0.265   c0,0,0,51.587,0,68.254c0,13.228-9.259,3.439-9.259,3.439l-58.201-63.228c0,0-6.085-8.465-19.048-8.465   C17.989,235.582,0,235.582,0,235.582v128.307h41.534c0,0,0-58.729,0-69.841s5.556-3.968,5.556-3.968l57.937,63.227   c0,0,8.995,10.317,23.81,10.317c27.778,0,26.455-26.455,26.455-26.455V235.582L155.291,235.582z M249.207,233.201   c-48.413,0-75.397,28.571-75.397,66.667c0,38.359,26.984,66.931,75.397,66.931c48.677,0,75.396-28.836,75.396-66.931   C324.603,261.772,297.884,233.201,249.207,233.201z M249.207,340.608c-22.223,0-33.333-15.079-33.333-40.74   c0-25.662,11.111-41.006,33.333-41.006c22.222,0,33.333,15.344,33.333,41.006C282.54,325.265,271.429,340.608,249.207,340.608z"></path>		<g>			<g>				<path fill="#8C8E90" d="M799.206,249.868h-1.058c0,3.968-1.588,7.672-4.233,10.317s-6.349,4.233-10.317,4.233     c-3.968,0-7.672-1.587-10.317-4.233s-4.232-6.349-4.232-10.317s1.587-7.672,4.232-10.317s6.35-4.233,10.317-4.233     c3.969,0,7.672,1.587,10.317,4.233s4.233,6.349,4.233,10.317H799.206h1.059c0-9.259-7.407-16.667-16.667-16.667     c-9.259,0-16.666,7.407-16.666,16.667s7.407,16.667,16.666,16.667c9.26,0,16.667-7.407,16.667-16.667H799.206z"></path>			</g>			<g>				<path fill="#8C8E90" d="M775.661,238.228c1.853-0.265,4.498-0.529,7.144-0.529c3.703,0,6.084,0.529,7.672,1.852     c1.322,1.058,2.116,2.646,2.116,4.762c0,3.175-2.381,5.027-4.498,5.82l0,0c1.588,0.529,2.646,2.381,3.439,4.497     c0.794,2.91,1.588,5.82,2.116,6.614h-4.497c-0.265-0.793-1.059-2.381-1.587-5.555c-0.794-2.91-1.853-3.968-4.498-3.968h-2.646     v9.523h-4.497v-23.016H775.661z M780.159,248.545h3.174c3.175,0,5.026-1.323,5.026-3.704c0-2.646-2.116-3.704-5.026-3.704     c-1.587,0-2.646,0.265-3.174,0.265V248.545z"></path>			</g>		</g>	</g></g></svg>