<svg width="149" height="30" viewBox="0 0 149 30" fill="none" xmlns="http://www.w3.org/2000/svg">
<g clip-path="url(#clip0_3129_13019)">
<path d="M14.4837 23.7138C12.8189 23.7138 11.1914 23.2026 9.80713 22.2449C8.42286 21.2871 7.34395 19.9258 6.70683 18.3331C6.06972 16.7404 5.90302 14.9878 6.22782 13.297C6.55262 11.6062 7.35432 10.0531 8.53155 8.83415C9.70878 7.61515 11.2087 6.785 12.8415 6.44868C14.4744 6.11236 16.1669 6.28498 17.705 6.94469C19.2432 7.60441 20.5578 8.7216 21.4828 10.155C22.4077 11.5884 22.9014 13.2736 22.9014 14.9975C22.902 16.1423 22.6847 17.2761 22.2619 18.3338C21.8391 19.3916 21.219 20.3528 20.4373 21.1623C19.6555 21.9718 18.7273 22.6138 17.7058 23.0516C16.6842 23.4894 15.5893 23.7145 14.4837 23.7138ZM14.4837 29.9999C17.3495 30.0009 20.1511 29.1218 22.5343 27.4739C24.9175 25.826 26.7752 23.4832 27.8725 20.742C28.9698 18.0008 29.2574 14.9841 28.6989 12.0736C28.1404 9.16313 26.7609 6.48952 24.7348 4.39091C22.7088 2.29231 20.1272 0.862999 17.3166 0.283741C14.506 -0.295518 11.5926 0.00130025 8.94497 1.13666C6.2973 2.27201 4.03426 4.1949 2.44205 6.66214C0.849844 9.12937 1.45698e-07 12.0301 0 14.9975C-1.9532e-07 18.9756 1.52581 22.7908 4.24191 25.6041C6.958 28.4175 10.642 29.9986 14.4837 29.9999Z" fill="#005EB8"/>
<path d="M108.436 29.9999C105.57 29.9999 102.769 29.1199 100.386 27.4712C98.0032 25.8225 96.1461 23.4792 95.0497 20.7376C93.9532 17.996 93.6666 14.9792 94.226 12.0689C94.7854 9.15863 96.1658 6.48546 98.1924 4.38753C100.219 2.2896 102.801 0.861138 105.612 0.282808C108.423 -0.295523 111.336 0.00225731 113.983 1.13849C116.631 2.27472 118.893 4.19836 120.484 6.66612C122.076 9.13388 122.925 12.0349 122.924 15.0023C122.923 18.9804 121.396 22.795 118.679 25.6075C115.962 28.42 112.277 29.9999 108.436 29.9999ZM108.436 23.7138C110.101 23.7148 111.729 23.2043 113.114 22.2469C114.499 21.2895 115.579 19.9282 116.216 18.3353C116.854 16.7424 117.021 14.9895 116.696 13.2982C116.372 11.607 115.57 10.0534 114.392 8.83415C113.215 7.61487 111.715 6.78462 110.081 6.44845C108.448 6.11228 106.755 6.2853 105.217 6.94561C103.679 7.60592 102.364 8.72385 101.439 10.158C100.515 11.5921 100.022 13.278 100.023 15.0023C100.023 16.1463 100.24 17.2791 100.663 18.3361C101.086 19.393 101.705 20.3533 102.487 21.1623C103.268 21.9712 104.195 22.6129 105.216 23.0507C106.237 23.4885 107.331 23.7138 108.436 23.7138Z" fill="#005EB8"/>
<path d="M32.1465 0.909032V29.2873H38.2172V6.14265H44.8377V29.2873H50.9084V6.14265H53.2553C53.8169 6.14265 54.373 6.25726 54.8918 6.47995C55.4106 6.70263 55.8819 7.02901 56.2788 7.44043C56.6757 7.85185 56.9904 8.34023 57.2049 8.87767C57.4193 9.4151 57.5294 9.99104 57.5288 10.5726V29.2873H63.5995V10.7161C63.5995 8.0639 62.5824 5.52027 60.7717 3.64445C58.961 1.76862 56.505 0.714159 53.9437 0.712891H38.2357C36.1936 0.712891 34.1639 0.778271 32.1465 0.909032Z" fill="#005EB8"/>
<path d="M125.816 0.909032V29.2873H131.887V6.14265H138.646C139.781 6.14265 140.869 6.60937 141.671 7.44014C142.474 8.27091 142.924 9.39768 142.924 10.5726V29.2873H148.995V10.7161C148.995 8.0639 147.978 5.52027 146.167 3.64445C144.356 1.76862 141.9 0.714159 139.339 0.712891H131.882C129.822 0.712891 127.826 0.779866 125.816 0.909032Z" fill="#005EB8"/>
<path d="M68.293 0.908787V29.287H74.3821V6.1424H81.557C82.1304 6.12289 82.7016 6.22296 83.2368 6.43668C83.7721 6.6504 84.2603 6.9734 84.6726 7.38646C85.0848 7.79952 85.4126 8.29421 85.6365 8.8411C85.8604 9.388 85.9757 9.97593 85.9757 10.5699C85.9757 11.1639 85.8604 11.7519 85.6365 12.2987C85.4126 12.8456 85.0848 13.3403 84.6726 13.7534C84.2603 14.1665 83.7721 14.4895 83.2368 14.7032C82.7016 14.9169 82.1304 15.017 81.557 14.9974H76.2948L85.6735 29.287H93.1255L86.3942 19.0064C88.0168 18.3273 89.4063 17.1615 90.3843 15.6586C91.3622 14.1558 91.8841 12.3845 91.8827 10.5723C91.8827 7.95737 90.8796 5.44952 89.0939 3.60048C87.3082 1.75143 84.8863 0.712646 82.3609 0.712646H74.3544C72.3155 0.712646 70.295 0.778027 68.293 0.908787Z" fill="#005EB8"/>
</g>
<defs>
<clipPath id="clip0_3129_13019">
<rect width="149" height="30" fill="white"/>
</clipPath>
</defs>
</svg>
